<mxfile host="65bd71144e">
    <diagram id="qIjbpCSNPuCVM5jG84hP" name="Page-1">
        <mxGraphModel dx="693" dy="1339" grid="1" gridSize="10" guides="1" tooltips="1" connect="1" arrows="1" fold="1" page="0" pageScale="1" pageWidth="850" pageHeight="1100" math="0" shadow="0">
            <root>
                <mxCell id="0"/>
                <mxCell id="1" parent="0"/>
                <mxCell id="5" value="Entites" style="swimlane;fontStyle=0;childLayout=stackLayout;horizontal=1;startSize=40;horizontalStack=0;resizeParent=1;resizeParentMax=0;resizeLast=0;collapsible=1;marginBottom=0;" parent="1" vertex="1">
                    <mxGeometry x="920" y="-800" width="200" height="620" as="geometry">
                        <mxRectangle x="200" y="50" width="70" height="30" as="alternateBounds"/>
                    </mxGeometry>
                </mxCell>
                <mxCell id="7" value="Customer&#10;    ID(PK) &#10;    first_name TEXT NOT NULL &#10;    last_name TEXT NOT NULL &#10;    email TEXT NOT NULL UNIQUE&#10;    password TEXT NOT NULL&#10;&#10;Order&#10;    ID (PK)&#10;    date DATE NOT NULL&#10;&#10;&#10;Order_details&#10;    customer_id(FK) INT NOT NULL&#10;    song_id (FK) INT&#10;    album_id (FK) INT  &#10;" style="text;strokeColor=none;fillColor=none;align=left;verticalAlign=middle;spacingLeft=4;spacingRight=4;overflow=hidden;points=[[0,0.5],[1,0.5]];portConstraint=eastwest;rotatable=0;" parent="5" vertex="1">
                    <mxGeometry y="40" width="200" height="270" as="geometry"/>
                </mxCell>
                <mxCell id="8" value="Artist&#10;    ID(PK)    &#10;    artist_name TEXT NOT NULL UNIQUE &#10;    &#10;Song&#10;&#9;    ID(PK)&#10;    song_name TEXT NOT NULL&#10;    song_price NUMERIC NOT NULL&#10;    artist_id (FK) INT NOT NULL&#10;    album_id (FK)  INT" style="text;strokeColor=none;fillColor=none;align=left;verticalAlign=middle;spacingLeft=4;spacingRight=4;overflow=hidden;points=[[0,0.5],[1,0.5]];portConstraint=eastwest;rotatable=0;" parent="5" vertex="1">
                    <mxGeometry y="310" width="200" height="190" as="geometry"/>
                </mxCell>
                <mxCell id="9" value="&#10;Album&#10;&#9;    ID(PK)&#10;    album_name TEXT NOT NULL&#10;    song_amount INT&#10;    album_price NUMERIC NOT NULL&#10;    song_id(FK) INT NOT NULL&#10;&#10;&#10;" style="text;strokeColor=none;fillColor=none;align=left;verticalAlign=middle;spacingLeft=4;spacingRight=4;overflow=hidden;points=[[0,0.5],[1,0.5]];portConstraint=eastwest;rotatable=0;" parent="5" vertex="1">
                    <mxGeometry y="500" width="200" height="120" as="geometry"/>
                </mxCell>
                <mxCell id="17" value="song doesn't need &lt;br&gt;order to exist.&lt;br&gt;can have 0&amp;gt;many orders&amp;nbsp;" style="edgeStyle=none;html=1;entryX=0;entryY=0;entryDx=0;entryDy=0;startArrow=none;endArrow=none;endFill=0;" parent="1" source="18" target="15" edge="1">
                    <mxGeometry relative="1" as="geometry"/>
                </mxCell>
                <mxCell id="27" value="&lt;span style=&quot;color: rgb(240 , 240 , 240) ; font-family: &amp;#34;helvetica&amp;#34; ; font-size: 11px ; font-style: normal ; font-weight: 400 ; letter-spacing: normal ; text-align: center ; text-indent: 0px ; text-transform: none ; word-spacing: 0px ; background-color: rgb(42 , 42 , 42) ; display: inline ; float: none&quot;&gt;album doesn't need&lt;br&gt;&amp;nbsp;order to exist.&lt;br&gt;can have 0&amp;gt;many orders&amp;nbsp;&lt;br&gt;&lt;/span&gt;" style="edgeStyle=none;html=1;exitX=0.287;exitY=0.79;exitDx=0;exitDy=0;startArrow=none;endArrow=none;endFill=0;entryX=1;entryY=0.25;entryDx=0;entryDy=0;exitPerimeter=0;" parent="1" source="31" target="14" edge="1">
                    <mxGeometry x="0.2504" y="-10" relative="1" as="geometry">
                        <mxPoint x="270" y="30" as="targetPoint"/>
                        <Array as="points"/>
                        <mxPoint as="offset"/>
                    </mxGeometry>
                </mxCell>
                <mxCell id="13" value="Customer" style="rounded=0;whiteSpace=wrap;html=1;" parent="1" vertex="1">
                    <mxGeometry x="-100" y="-475" width="80" height="55" as="geometry"/>
                </mxCell>
                <mxCell id="14" value="Album" style="rounded=0;whiteSpace=wrap;html=1;" parent="1" vertex="1">
                    <mxGeometry x="180" y="40" width="80" height="40" as="geometry"/>
                </mxCell>
                <mxCell id="22" value="album does need&lt;br&gt;artist to exist.&lt;br&gt;MUST have 1 and only 1 artist&amp;nbsp;" style="edgeStyle=none;html=1;startArrow=none;strokeWidth=3;endArrow=none;endFill=0;exitX=0;exitY=0;exitDx=0;exitDy=0;entryX=1;entryY=1;entryDx=0;entryDy=0;" parent="1" source="181" target="14" edge="1">
                    <mxGeometry x="-0.0557" relative="1" as="geometry">
                        <mxPoint as="offset"/>
                        <mxPoint x="320" y="170" as="sourcePoint"/>
                        <Array as="points"/>
                    </mxGeometry>
                </mxCell>
                <mxCell id="15" value="Song" style="rounded=0;whiteSpace=wrap;html=1;" parent="1" vertex="1">
                    <mxGeometry x="760" y="40" width="80" height="40" as="geometry"/>
                </mxCell>
                <mxCell id="87" value="order does need&lt;br&gt;song to exist.&lt;br&gt;MUST have 1&amp;gt;many songs" style="edgeStyle=none;html=1;endArrow=none;endFill=0;strokeWidth=3;startArrow=none;startFill=0;entryX=1;entryY=1;entryDx=0;entryDy=0;" parent="1" source="18" target="158" edge="1">
                    <mxGeometry x="-0.2461" y="-6" relative="1" as="geometry">
                        <mxPoint as="offset"/>
                        <mxPoint x="540" y="-220" as="targetPoint"/>
                    </mxGeometry>
                </mxCell>
                <mxCell id="18" value="needs a" style="rhombus;whiteSpace=wrap;html=1;" parent="1" vertex="1">
                    <mxGeometry x="610" y="-80" width="80" height="50" as="geometry"/>
                </mxCell>
                <mxCell id="23" value="&lt;span style=&quot;color: rgb(240 , 240 , 240) ; font-size: 11px ; font-style: normal ; font-weight: 400 ; letter-spacing: normal ; text-align: center ; text-indent: 0px ; text-transform: none ; word-spacing: 0px ; background-color: rgb(42 , 42 , 42) ; font-family: &amp;#34;helvetica&amp;#34; ; display: inline ; float: none&quot;&gt;artist doesn't need&lt;/span&gt;&lt;br style=&quot;color: rgb(240 , 240 , 240) ; font-size: 11px ; font-style: normal ; font-weight: 400 ; letter-spacing: normal ; text-align: center ; text-indent: 0px ; text-transform: none ; word-spacing: 0px ; font-family: &amp;#34;helvetica&amp;#34;&quot;&gt;&lt;span style=&quot;color: rgb(240 , 240 , 240) ; font-size: 11px ; font-style: normal ; font-weight: 400 ; letter-spacing: normal ; text-align: center ; text-indent: 0px ; text-transform: none ; word-spacing: 0px ; background-color: rgb(42 , 42 , 42) ; font-family: &amp;#34;helvetica&amp;#34; ; display: inline ; float: none&quot;&gt;song to exist.&lt;/span&gt;&lt;br style=&quot;color: rgb(240 , 240 , 240) ; font-size: 11px ; font-style: normal ; font-weight: 400 ; letter-spacing: normal ; text-align: center ; text-indent: 0px ; text-transform: none ; word-spacing: 0px ; font-family: &amp;#34;helvetica&amp;#34;&quot;&gt;&lt;span style=&quot;color: rgb(240 , 240 , 240) ; font-size: 11px ; font-style: normal ; font-weight: 400 ; letter-spacing: normal ; text-align: center ; text-indent: 0px ; text-transform: none ; word-spacing: 0px ; background-color: rgb(42 , 42 , 42) ; font-family: &amp;#34;helvetica&amp;#34; ; display: inline ; float: none&quot;&gt;can have 0&amp;gt; many songs&amp;nbsp;&lt;/span&gt;" style="edgeStyle=none;html=1;endArrow=none;startArrow=none;startFill=0;strokeWidth=1;endFill=0;exitX=0;exitY=1;exitDx=0;exitDy=0;entryX=1;entryY=0;entryDx=0;entryDy=0;" parent="1" source="178" target="177" edge="1">
                    <mxGeometry relative="1" as="geometry">
                        <mxPoint x="800" y="80" as="sourcePoint"/>
                        <mxPoint x="666.9230769230769" y="186.9230769230769" as="targetPoint"/>
                        <Array as="points"/>
                    </mxGeometry>
                </mxCell>
                <mxCell id="92" value="order does need&lt;br&gt;album to exist.&lt;br&gt;MUST have 1&amp;gt;many albums&amp;nbsp;" style="edgeStyle=none;html=1;startArrow=none;startFill=0;endArrow=none;endFill=0;strokeWidth=3;exitX=1;exitY=0;exitDx=0;exitDy=0;entryX=0.5;entryY=1;entryDx=0;entryDy=0;" parent="1" source="31" target="158" edge="1">
                    <mxGeometry x="0.1306" y="-7" relative="1" as="geometry">
                        <mxPoint as="offset"/>
                        <mxPoint x="370" y="-190" as="targetPoint"/>
                    </mxGeometry>
                </mxCell>
                <mxCell id="31" value="needs an" style="rhombus;whiteSpace=wrap;html=1;" parent="1" vertex="1">
                    <mxGeometry x="310" y="-80" width="80" height="50" as="geometry"/>
                </mxCell>
                <mxCell id="54" style="edgeStyle=none;html=1;startArrow=none;startFill=0;endArrow=none;endFill=0;strokeWidth=3;entryX=0;entryY=0.5;entryDx=0;entryDy=0;" parent="1" source="35" target="13" edge="1">
                    <mxGeometry relative="1" as="geometry">
                        <mxPoint x="-120" y="-455" as="targetPoint"/>
                    </mxGeometry>
                </mxCell>
                <mxCell id="35" value="first_name" style="ellipse;whiteSpace=wrap;html=1;" parent="1" vertex="1">
                    <mxGeometry x="-230" y="-475" width="80" height="40" as="geometry"/>
                </mxCell>
                <mxCell id="52" style="edgeStyle=none;html=1;entryX=0.75;entryY=0;entryDx=0;entryDy=0;startArrow=none;startFill=0;endArrow=none;endFill=0;strokeWidth=3;" parent="1" source="36" target="15" edge="1">
                    <mxGeometry relative="1" as="geometry"/>
                </mxCell>
                <mxCell id="36" value="song_name" style="ellipse;whiteSpace=wrap;html=1;" parent="1" vertex="1">
                    <mxGeometry x="850" y="-150" width="80" height="40" as="geometry"/>
                </mxCell>
                <mxCell id="59" style="edgeStyle=none;html=1;startArrow=none;startFill=0;endArrow=none;endFill=0;strokeWidth=3;entryX=0;entryY=1;entryDx=0;entryDy=0;" parent="1" source="38" target="14" edge="1">
                    <mxGeometry relative="1" as="geometry">
                        <mxPoint x="-170" y="350" as="targetPoint"/>
                    </mxGeometry>
                </mxCell>
                <mxCell id="38" value="album_price" style="ellipse;whiteSpace=wrap;html=1;" parent="1" vertex="1">
                    <mxGeometry x="40" y="80" width="80" height="40" as="geometry"/>
                </mxCell>
                <mxCell id="61" style="edgeStyle=none;html=1;entryX=0;entryY=0.5;entryDx=0;entryDy=0;startArrow=none;startFill=0;endArrow=none;endFill=0;strokeWidth=3;" parent="1" source="39" target="14" edge="1">
                    <mxGeometry relative="1" as="geometry">
                        <mxPoint x="-130" y="350" as="targetPoint"/>
                    </mxGeometry>
                </mxCell>
                <mxCell id="39" value="&lt;div style=&quot;color: rgb(212 , 212 , 212) ; background-color: rgb(30 , 30 , 30) ; font-family: &amp;#34;consolas&amp;#34; , &amp;#34;courier new&amp;#34; , monospace ; font-size: 14px ; line-height: 19px&quot;&gt;&lt;span style=&quot;color: rgb(240 , 240 , 240) ; font-family: &amp;#34;helvetica&amp;#34; ; font-size: 12px ; background-color: rgb(42 , 42 , 42)&quot;&gt;album_name&lt;/span&gt;&lt;br&gt;&lt;/div&gt;" style="ellipse;whiteSpace=wrap;html=1;" parent="1" vertex="1">
                    <mxGeometry x="30" y="-50" width="80" height="40" as="geometry"/>
                </mxCell>
                <mxCell id="60" style="edgeStyle=none;html=1;startArrow=none;startFill=0;endArrow=none;endFill=0;strokeWidth=3;entryX=0;entryY=0;entryDx=0;entryDy=0;" parent="1" source="40" target="14" edge="1">
                    <mxGeometry relative="1" as="geometry">
                        <mxPoint x="-130" y="330" as="targetPoint"/>
                    </mxGeometry>
                </mxCell>
                <mxCell id="40" value="&#10;&#10;&lt;u style=&quot;color: rgb(240, 240, 240); font-family: helvetica; font-size: 12px; font-style: normal; font-weight: 400; letter-spacing: normal; text-align: center; text-indent: 0px; text-transform: none; word-spacing: 0px; background-color: rgb(42, 42, 42);&quot;&gt;ID&lt;/u&gt;&#10;&#10;" style="ellipse;whiteSpace=wrap;html=1;" parent="1" vertex="1">
                    <mxGeometry x="120" y="-80" width="80" height="40" as="geometry"/>
                </mxCell>
                <mxCell id="64" style="edgeStyle=none;html=1;startArrow=none;startFill=0;endArrow=none;endFill=0;strokeWidth=3;" parent="1" source="42" edge="1">
                    <mxGeometry relative="1" as="geometry">
                        <mxPoint x="840" y="60" as="targetPoint"/>
                    </mxGeometry>
                </mxCell>
                <mxCell id="42" value="song_price" style="ellipse;whiteSpace=wrap;html=1;" parent="1" vertex="1">
                    <mxGeometry x="960" y="-30" width="80" height="40" as="geometry"/>
                </mxCell>
                <mxCell id="53" style="edgeStyle=none;html=1;startArrow=none;startFill=0;endArrow=none;endFill=0;strokeWidth=3;entryX=0.5;entryY=0;entryDx=0;entryDy=0;" parent="1" source="44" target="13" edge="1">
                    <mxGeometry relative="1" as="geometry">
                        <mxPoint x="-10" y="-560" as="targetPoint"/>
                    </mxGeometry>
                </mxCell>
                <mxCell id="44" value="password" style="ellipse;whiteSpace=wrap;html=1;" parent="1" vertex="1">
                    <mxGeometry x="-10" y="-540" width="80" height="40" as="geometry"/>
                </mxCell>
                <mxCell id="45" value="&lt;u&gt;ID&lt;/u&gt;" style="ellipse;whiteSpace=wrap;html=1;" parent="1" vertex="1">
                    <mxGeometry x="760" y="-160" width="80" height="40" as="geometry"/>
                </mxCell>
                <mxCell id="66" style="edgeStyle=none;html=1;entryX=0.5;entryY=0;entryDx=0;entryDy=0;startArrow=none;startFill=0;endArrow=none;endFill=0;strokeWidth=3;exitX=0.5;exitY=1;exitDx=0;exitDy=0;" parent="1" source="45" target="15" edge="1">
                    <mxGeometry relative="1" as="geometry">
                        <mxPoint x="759.9998819995166" y="-80.05082600338392" as="sourcePoint"/>
                        <mxPoint x="777.15" y="40" as="targetPoint"/>
                    </mxGeometry>
                </mxCell>
                <mxCell id="68" value="relationship types" style="swimlane;fontStyle=0;childLayout=stackLayout;horizontal=1;startSize=40;horizontalStack=0;resizeParent=1;resizeParentMax=0;resizeLast=0;collapsible=1;marginBottom=0;" parent="1" vertex="1">
                    <mxGeometry x="680" y="-480" width="200" height="250" as="geometry"/>
                </mxCell>
                <mxCell id="69" value="one-to-one:&#10;-1 Order_details to 1 Order" style="text;strokeColor=none;fillColor=none;align=left;verticalAlign=middle;spacingLeft=4;spacingRight=4;overflow=hidden;points=[[0,0.5],[1,0.5]];portConstraint=eastwest;rotatable=0;" parent="68" vertex="1">
                    <mxGeometry y="40" width="200" height="30" as="geometry"/>
                </mxCell>
                <mxCell id="70" value="one-to-many:&#10;-1 Customer to many Orders&#10;-1 order_details to many Albums&#10;-1 order_details to many Songs&#10;-1 artist to many Albums&#10;-1 artist to many Songs" style="text;strokeColor=none;fillColor=none;align=left;verticalAlign=middle;spacingLeft=4;spacingRight=4;overflow=hidden;points=[[0,0.5],[1,0.5]];portConstraint=eastwest;rotatable=0;" parent="68" vertex="1">
                    <mxGeometry y="70" width="200" height="110" as="geometry"/>
                </mxCell>
                <mxCell id="71" value="many-to-many:&#10;many Songs to many Albums&#10;" style="text;strokeColor=none;fillColor=none;align=left;verticalAlign=middle;spacingLeft=4;spacingRight=4;overflow=hidden;points=[[0,0.5],[1,0.5]];portConstraint=eastwest;rotatable=0;" parent="68" vertex="1">
                    <mxGeometry y="180" width="200" height="70" as="geometry"/>
                </mxCell>
                <mxCell id="89" value="user doesn't need &lt;br&gt;an order to exist.&amp;nbsp;&lt;br&gt;can have 0&amp;gt;many orders&amp;nbsp;" style="edgeStyle=none;html=1;entryX=1;entryY=0.5;entryDx=0;entryDy=0;startArrow=none;startFill=0;endArrow=none;endFill=0;strokeWidth=1;exitX=0;exitY=0.5;exitDx=0;exitDy=0;" parent="1" source="90" target="13" edge="1">
                    <mxGeometry relative="1" as="geometry">
                        <mxPoint x="74.2105263157896" y="-362.8947368421052" as="sourcePoint"/>
                    </mxGeometry>
                </mxCell>
                <mxCell id="82" value="Order" style="rounded=0;whiteSpace=wrap;html=1;" parent="1" vertex="1">
                    <mxGeometry x="490" y="-475" width="80" height="50" as="geometry"/>
                </mxCell>
                <mxCell id="90" value="creates an" style="rhombus;whiteSpace=wrap;html=1;" parent="1" vertex="1">
                    <mxGeometry x="130" y="-470" width="80" height="40" as="geometry"/>
                </mxCell>
                <mxCell id="91" value="&amp;nbsp;order does need&lt;br&gt;a user to exist.&amp;nbsp;&lt;br&gt;cannot have &amp;gt;1 user" style="edgeStyle=none;html=1;entryX=1;entryY=0.5;entryDx=0;entryDy=0;startArrow=none;startFill=0;endArrow=classic;endFill=1;strokeWidth=3;exitX=0;exitY=0.5;exitDx=0;exitDy=0;" parent="1" source="82" target="90" edge="1">
                    <mxGeometry relative="1" as="geometry">
                        <mxPoint x="220" y="-220" as="sourcePoint"/>
                        <mxPoint y="-220" as="targetPoint"/>
                    </mxGeometry>
                </mxCell>
                <mxCell id="98" style="edgeStyle=none;html=1;startArrow=none;startFill=0;endArrow=none;endFill=0;strokeWidth=3;" parent="1" source="95" target="97" edge="1">
                    <mxGeometry relative="1" as="geometry"/>
                </mxCell>
                <mxCell id="95" value="User" style="rounded=0;whiteSpace=wrap;html=1;" parent="1" vertex="1">
                    <mxGeometry x="450" y="760" width="120" height="60" as="geometry"/>
                </mxCell>
                <mxCell id="99" style="edgeStyle=none;html=1;entryX=1;entryY=0.5;entryDx=0;entryDy=0;startArrow=none;startFill=0;endArrow=none;endFill=0;strokeWidth=3;" parent="1" source="96" target="97" edge="1">
                    <mxGeometry relative="1" as="geometry"/>
                </mxCell>
                <mxCell id="96" value="Comment" style="rounded=0;whiteSpace=wrap;html=1;" parent="1" vertex="1">
                    <mxGeometry x="800" y="760" width="120" height="60" as="geometry"/>
                </mxCell>
                <mxCell id="97" value="writes" style="rhombus;whiteSpace=wrap;html=1;" parent="1" vertex="1">
                    <mxGeometry x="650" y="750" width="80" height="80" as="geometry"/>
                </mxCell>
                <mxCell id="102" style="edgeStyle=none;html=1;startArrow=none;startFill=0;endArrow=none;endFill=0;strokeWidth=3;entryX=0.216;entryY=1.005;entryDx=0;entryDy=0;entryPerimeter=0;" parent="1" source="103" target="14" edge="1">
                    <mxGeometry relative="1" as="geometry">
                        <mxPoint x="250" y="160" as="targetPoint"/>
                    </mxGeometry>
                </mxCell>
                <mxCell id="103" value="song_id(FK)" style="ellipse;whiteSpace=wrap;html=1;" parent="1" vertex="1">
                    <mxGeometry x="40" y="160" width="80" height="40" as="geometry"/>
                </mxCell>
                <mxCell id="104" style="edgeStyle=none;html=1;startArrow=none;startFill=0;endArrow=none;endFill=0;strokeWidth=3;entryX=0.363;entryY=0.997;entryDx=0;entryDy=0;entryPerimeter=0;" parent="1" source="105" target="14" edge="1">
                    <mxGeometry relative="1" as="geometry">
                        <mxPoint x="230" y="90" as="targetPoint"/>
                    </mxGeometry>
                </mxCell>
                <mxCell id="105" value="artist_id" style="ellipse;whiteSpace=wrap;html=1;" parent="1" vertex="1">
                    <mxGeometry x="80" y="240" width="80" height="40" as="geometry"/>
                </mxCell>
                <mxCell id="108" style="edgeStyle=none;html=1;startArrow=none;startFill=0;endArrow=none;endFill=0;strokeWidth=3;exitX=0.5;exitY=1;exitDx=0;exitDy=0;entryX=0.5;entryY=0;entryDx=0;entryDy=0;" parent="1" source="109" target="82" edge="1">
                    <mxGeometry relative="1" as="geometry">
                        <mxPoint x="410" y="-480" as="targetPoint"/>
                    </mxGeometry>
                </mxCell>
                <mxCell id="109" value="date" style="ellipse;whiteSpace=wrap;html=1;" parent="1" vertex="1">
                    <mxGeometry x="590" y="-580" width="80" height="40" as="geometry"/>
                </mxCell>
                <mxCell id="110" style="edgeStyle=none;html=1;entryX=0;entryY=0;entryDx=0;entryDy=0;startArrow=none;startFill=0;endArrow=none;endFill=0;strokeWidth=3;" parent="1" source="111" target="82" edge="1">
                    <mxGeometry relative="1" as="geometry">
                        <mxPoint x="350" y="-560" as="targetPoint"/>
                    </mxGeometry>
                </mxCell>
                <mxCell id="111" value="&lt;u&gt;ID&lt;/u&gt;" style="ellipse;whiteSpace=wrap;html=1;" parent="1" vertex="1">
                    <mxGeometry x="350" y="-540" width="80" height="40" as="geometry"/>
                </mxCell>
                <mxCell id="112" style="edgeStyle=none;html=1;startArrow=none;startFill=0;endArrow=none;endFill=0;strokeWidth=3;" parent="1" source="113" target="13" edge="1">
                    <mxGeometry relative="1" as="geometry">
                        <mxPoint x="-110" y="-390" as="targetPoint"/>
                    </mxGeometry>
                </mxCell>
                <mxCell id="113" value="&lt;u&gt;ID&lt;/u&gt;" style="ellipse;whiteSpace=wrap;html=1;" parent="1" vertex="1">
                    <mxGeometry x="-220" y="-410" width="80" height="40" as="geometry"/>
                </mxCell>
                <mxCell id="116" style="edgeStyle=none;html=1;startArrow=none;startFill=0;endArrow=none;endFill=0;strokeWidth=1;" parent="1" source="117" edge="1">
                    <mxGeometry relative="1" as="geometry">
                        <mxPoint x="840" y="80" as="targetPoint"/>
                    </mxGeometry>
                </mxCell>
                <mxCell id="117" value="album(FK)" style="ellipse;whiteSpace=wrap;html=1;" parent="1" vertex="1">
                    <mxGeometry x="960" y="60" width="80" height="40" as="geometry"/>
                </mxCell>
                <mxCell id="124" style="edgeStyle=none;html=1;startArrow=none;startFill=0;endArrow=none;endFill=0;strokeWidth=3;" parent="1" source="125" target="13" edge="1">
                    <mxGeometry relative="1" as="geometry">
                        <mxPoint x="-154.090909090909" y="-475" as="targetPoint"/>
                    </mxGeometry>
                </mxCell>
                <mxCell id="125" value="&lt;u&gt;email&lt;/u&gt;" style="ellipse;whiteSpace=wrap;html=1;" parent="1" vertex="1">
                    <mxGeometry x="-100" y="-570" width="80" height="40" as="geometry"/>
                </mxCell>
                <mxCell id="134" style="edgeStyle=none;html=1;startArrow=none;startFill=0;endArrow=none;endFill=0;strokeWidth=3;entryX=0;entryY=0;entryDx=0;entryDy=0;" parent="1" source="135" target="13" edge="1">
                    <mxGeometry relative="1" as="geometry">
                        <mxPoint x="-110" y="-555" as="targetPoint"/>
                    </mxGeometry>
                </mxCell>
                <mxCell id="135" value="last_name" style="ellipse;whiteSpace=wrap;html=1;" parent="1" vertex="1">
                    <mxGeometry x="-230" y="-530" width="80" height="40" as="geometry"/>
                </mxCell>
                <mxCell id="137" style="edgeStyle=none;html=1;entryX=0;entryY=0.5;entryDx=0;entryDy=0;startArrow=none;startFill=0;endArrow=none;endFill=0;strokeWidth=3;" parent="1" source="138" target="14" edge="1">
                    <mxGeometry relative="1" as="geometry">
                        <mxPoint x="190" y="130" as="targetPoint"/>
                    </mxGeometry>
                </mxCell>
                <mxCell id="138" value="&lt;div style=&quot;color: rgb(212 , 212 , 212) ; background-color: rgb(30 , 30 , 30) ; font-family: &amp;#34;consolas&amp;#34; , &amp;#34;courier new&amp;#34; , monospace ; font-size: 14px ; line-height: 19px&quot;&gt;song_amount&lt;/div&gt;" style="ellipse;whiteSpace=wrap;html=1;" parent="1" vertex="1">
                    <mxGeometry x="-30" y="20" width="120" height="40" as="geometry"/>
                </mxCell>
                <mxCell id="140" value="artist_id" style="ellipse;whiteSpace=wrap;html=1;" parent="1" vertex="1">
                    <mxGeometry x="950" y="-120" width="80" height="40" as="geometry"/>
                </mxCell>
                <mxCell id="141" style="edgeStyle=none;html=1;startArrow=none;startFill=0;endArrow=none;endFill=0;strokeWidth=3;exitX=0.321;exitY=1.05;exitDx=0;exitDy=0;exitPerimeter=0;entryX=1;entryY=0;entryDx=0;entryDy=0;" parent="1" source="140" target="15" edge="1">
                    <mxGeometry relative="1" as="geometry">
                        <mxPoint x="820" y="30" as="targetPoint"/>
                        <mxPoint x="800" y="160" as="sourcePoint"/>
                    </mxGeometry>
                </mxCell>
                <mxCell id="144" value="ALBUMS &#10;album_id         price     song_id    song_amount " style="swimlane;fontStyle=0;childLayout=stackLayout;horizontal=1;startSize=30;horizontalStack=0;resizeParent=1;resizeParentMax=0;resizeLast=0;collapsible=1;marginBottom=0;" parent="1" vertex="1">
                    <mxGeometry x="1160" y="-800" width="280" height="210" as="geometry"/>
                </mxCell>
                <mxCell id="145" value="           1               5.00           1                    10&#10;           1               5.00           2                    10&#10;           1               5.00           3                    10&#10;           1               5.00           4                    10&#10;           1               5.00           5                    10&#10;           1               5.00           6                    10&#10;           1               5.00           7                    10&#10;           1               5.00           8                    10&#10;           1               5.00           9                    10&#10;           1               5.00         10                    10&#10;       null                1.00         22                  null" style="text;strokeColor=none;fillColor=none;align=left;verticalAlign=middle;spacingLeft=4;spacingRight=4;overflow=hidden;points=[[0,0.5],[1,0.5]];portConstraint=eastwest;rotatable=0;" parent="144" vertex="1">
                    <mxGeometry y="30" width="280" height="180" as="geometry"/>
                </mxCell>
                <mxCell id="151" value="ORDERS&#10;order_id  customer_id                  date     song_id     album_id" style="swimlane;fontStyle=0;childLayout=stackLayout;horizontal=1;startSize=40;horizontalStack=0;resizeParent=1;resizeParentMax=0;resizeLast=0;collapsible=1;marginBottom=0;" parent="1" vertex="1">
                    <mxGeometry x="1140" y="-550" width="340" height="100" as="geometry"/>
                </mxCell>
                <mxCell id="152" value="      1                         1        2022-01-01        null                1&#10;      1                         1        2022-01-01          22            null   " style="text;strokeColor=none;fillColor=none;align=left;verticalAlign=middle;spacingLeft=4;spacingRight=4;overflow=hidden;points=[[0,0.5],[1,0.5]];portConstraint=eastwest;rotatable=0;" parent="151" vertex="1">
                    <mxGeometry y="40" width="340" height="60" as="geometry"/>
                </mxCell>
                <mxCell id="154" value="ORDER_DETAILS&#10;order_id      song_id     album_id" style="swimlane;fontStyle=0;childLayout=stackLayout;horizontal=1;startSize=40;horizontalStack=0;resizeParent=1;resizeParentMax=0;resizeLast=0;collapsible=1;marginBottom=0;" parent="1" vertex="1">
                    <mxGeometry x="1140" y="-430" width="340" height="100" as="geometry"/>
                </mxCell>
                <mxCell id="155" value="                           1                 1                  null &#10;                           1               null                    1" style="text;strokeColor=none;fillColor=none;align=left;verticalAlign=middle;spacingLeft=4;spacingRight=4;overflow=hidden;points=[[0,0.5],[1,0.5]];portConstraint=eastwest;rotatable=0;" parent="154" vertex="1">
                    <mxGeometry y="40" width="340" height="60" as="geometry"/>
                </mxCell>
                <mxCell id="158" value="Order_details" style="rounded=0;whiteSpace=wrap;html=1;" parent="1" vertex="1">
                    <mxGeometry x="440" y="-210" width="80" height="50" as="geometry"/>
                </mxCell>
                <mxCell id="159" value="order_detail needs&lt;br&gt;an order to exist.&amp;nbsp;&lt;br&gt;&amp;nbsp; must have 1 order&amp;nbsp; &amp;nbsp;" style="edgeStyle=none;html=1;entryX=1;entryY=0;entryDx=0;entryDy=0;startArrow=none;startFill=0;endArrow=none;endFill=0;strokeWidth=1;exitX=0.5;exitY=1;exitDx=0;exitDy=0;" parent="1" source="160" target="158" edge="1">
                    <mxGeometry relative="1" as="geometry">
                        <mxPoint x="234.2105263157896" y="-276.3947368421052" as="sourcePoint"/>
                        <mxPoint x="496.8399999999999" y="-210" as="targetPoint"/>
                    </mxGeometry>
                </mxCell>
                <mxCell id="160" value="has" style="rhombus;whiteSpace=wrap;html=1;" parent="1" vertex="1">
                    <mxGeometry x="490" y="-320" width="80" height="40" as="geometry"/>
                </mxCell>
                <mxCell id="161" value="&amp;nbsp;order does need&lt;br&gt;an order_detail to exist.&amp;nbsp;&lt;br&gt;must have 1 order_detail&amp;nbsp;" style="edgeStyle=none;html=1;entryX=0.5;entryY=0;entryDx=0;entryDy=0;startArrow=none;startFill=0;endArrow=classic;endFill=1;strokeWidth=3;exitX=0.5;exitY=1;exitDx=0;exitDy=0;" parent="1" source="82" target="160" edge="1">
                    <mxGeometry relative="1" as="geometry">
                        <mxPoint x="464.9999999999998" y="-343.5" as="sourcePoint"/>
                        <mxPoint x="160" y="-133.5" as="targetPoint"/>
                    </mxGeometry>
                </mxCell>
                <mxCell id="164" style="edgeStyle=none;html=1;startArrow=none;startFill=0;endArrow=none;endFill=0;strokeWidth=3;exitX=1;exitY=0.5;exitDx=0;exitDy=0;entryX=0;entryY=0.5;entryDx=0;entryDy=0;" parent="1" source="165" target="158" edge="1">
                    <mxGeometry relative="1" as="geometry">
                        <mxPoint x="280.0000000000002" y="-235" as="targetPoint"/>
                    </mxGeometry>
                </mxCell>
                <mxCell id="165" value="song_id(FK)" style="ellipse;whiteSpace=wrap;html=1;" parent="1" vertex="1">
                    <mxGeometry x="230" y="-210" width="80" height="40" as="geometry"/>
                </mxCell>
                <mxCell id="167" value="&lt;span style=&quot;padding: 0px ; margin: 0px ; text-align: left&quot;&gt;album&lt;/span&gt;&lt;span style=&quot;padding: 0px ; margin: 0px&quot;&gt;_id(FK)&lt;/span&gt;" style="ellipse;whiteSpace=wrap;html=1;" parent="1" vertex="1">
                    <mxGeometry x="270" y="-160" width="80" height="40" as="geometry"/>
                </mxCell>
                <mxCell id="168" style="edgeStyle=none;html=1;startArrow=none;startFill=0;endArrow=none;endFill=0;strokeWidth=3;exitX=0;exitY=0.5;exitDx=0;exitDy=0;entryX=1;entryY=0.5;entryDx=0;entryDy=0;" parent="1" source="158" target="167" edge="1">
                    <mxGeometry relative="1" as="geometry">
                        <mxPoint x="290" y="-225" as="targetPoint"/>
                    </mxGeometry>
                </mxCell>
                <mxCell id="171" style="edgeStyle=none;html=1;startArrow=none;startFill=0;endArrow=none;endFill=0;strokeWidth=3;" parent="1" source="172" target="158" edge="1">
                    <mxGeometry relative="1" as="geometry">
                        <mxPoint x="440" y="-220" as="targetPoint"/>
                        <Array as="points"/>
                    </mxGeometry>
                </mxCell>
                <mxCell id="172" value="&lt;u&gt;ID&lt;/u&gt;" style="ellipse;whiteSpace=wrap;html=1;" parent="1" vertex="1">
                    <mxGeometry x="300" y="-325" width="80" height="40" as="geometry"/>
                </mxCell>
                <mxCell id="173" style="edgeStyle=none;html=1;startArrow=none;startFill=0;endArrow=none;endFill=0;strokeWidth=3;entryX=0.5;entryY=1;entryDx=0;entryDy=0;exitX=0.5;exitY=0;exitDx=0;exitDy=0;" parent="1" source="82" target="174" edge="1">
                    <mxGeometry relative="1" as="geometry">
                        <mxPoint x="380.0000000000002" y="-552.5" as="targetPoint"/>
                        <mxPoint x="490" y="-480" as="sourcePoint"/>
                    </mxGeometry>
                </mxCell>
                <mxCell id="174" value="customer_id(FK)" style="ellipse;whiteSpace=wrap;html=1;" parent="1" vertex="1">
                    <mxGeometry x="440" y="-600" width="110" height="40" as="geometry"/>
                </mxCell>
                <mxCell id="175" style="edgeStyle=none;html=1;startArrow=none;startFill=0;endArrow=none;endFill=0;strokeWidth=3;exitX=1;exitY=0.5;exitDx=0;exitDy=0;entryX=0;entryY=0;entryDx=0;entryDy=0;" parent="1" source="176" target="158" edge="1">
                    <mxGeometry relative="1" as="geometry">
                        <mxPoint x="429.9999999999998" y="-245" as="targetPoint"/>
                    </mxGeometry>
                </mxCell>
                <mxCell id="176" value="order_id(FK)" style="ellipse;whiteSpace=wrap;html=1;" parent="1" vertex="1">
                    <mxGeometry x="220" y="-270" width="80" height="40" as="geometry"/>
                </mxCell>
                <mxCell id="177" value="Artist" style="rounded=0;whiteSpace=wrap;html=1;" parent="1" vertex="1">
                    <mxGeometry x="455" y="320" width="80" height="40" as="geometry"/>
                </mxCell>
                <mxCell id="178" value="needs an&amp;nbsp;" style="rhombus;whiteSpace=wrap;html=1;" parent="1" vertex="1">
                    <mxGeometry x="610" y="150" width="80" height="80" as="geometry"/>
                </mxCell>
                <mxCell id="180" value="&lt;span style=&quot;color: rgb(240 , 240 , 240) ; font-family: &amp;#34;helvetica&amp;#34; ; font-size: 11px ; font-style: normal ; font-weight: 400 ; letter-spacing: normal ; text-align: center ; text-indent: 0px ; text-transform: none ; word-spacing: 0px ; background-color: rgb(42 , 42 , 42) ; display: inline ; float: none&quot;&gt;song does need&lt;/span&gt;&lt;br style=&quot;color: rgb(240 , 240 , 240) ; font-family: &amp;#34;helvetica&amp;#34; ; font-size: 11px ; font-style: normal ; font-weight: 400 ; letter-spacing: normal ; text-align: center ; text-indent: 0px ; text-transform: none ; word-spacing: 0px&quot;&gt;&lt;span style=&quot;color: rgb(240 , 240 , 240) ; font-family: &amp;#34;helvetica&amp;#34; ; font-size: 11px ; font-style: normal ; font-weight: 400 ; letter-spacing: normal ; text-align: center ; text-indent: 0px ; text-transform: none ; word-spacing: 0px ; background-color: rgb(42 , 42 , 42) ; display: inline ; float: none&quot;&gt;artist to exist.&lt;/span&gt;&lt;br style=&quot;color: rgb(240 , 240 , 240) ; font-family: &amp;#34;helvetica&amp;#34; ; font-size: 11px ; font-style: normal ; font-weight: 400 ; letter-spacing: normal ; text-align: center ; text-indent: 0px ; text-transform: none ; word-spacing: 0px&quot;&gt;&lt;span style=&quot;color: rgb(240 , 240 , 240) ; font-family: &amp;#34;helvetica&amp;#34; ; font-size: 11px ; font-style: normal ; font-weight: 400 ; letter-spacing: normal ; text-align: center ; text-indent: 0px ; text-transform: none ; word-spacing: 0px ; background-color: rgb(42 , 42 , 42) ; display: inline ; float: none&quot;&gt;&amp;nbsp;MUST&amp;nbsp; have 1 and only 1 artist&amp;nbsp;&lt;/span&gt;" style="edgeStyle=none;html=1;endArrow=none;startArrow=none;startFill=0;strokeWidth=3;endFill=0;exitX=0;exitY=1;exitDx=0;exitDy=0;entryX=1;entryY=0;entryDx=0;entryDy=0;" parent="1" source="15" target="178" edge="1">
                    <mxGeometry relative="1" as="geometry">
                        <mxPoint x="760" y="60" as="sourcePoint"/>
                        <mxPoint x="535" y="200" as="targetPoint"/>
                        <Array as="points"/>
                    </mxGeometry>
                </mxCell>
                <mxCell id="181" value="needs an&amp;nbsp;" style="rhombus;whiteSpace=wrap;html=1;" parent="1" vertex="1">
                    <mxGeometry x="320" y="170" width="80" height="80" as="geometry"/>
                </mxCell>
                <mxCell id="182" value="&lt;span style=&quot;color: rgb(240 , 240 , 240) ; font-family: &amp;#34;helvetica&amp;#34; ; font-size: 11px ; font-style: normal ; font-weight: 400 ; letter-spacing: normal ; text-align: center ; text-indent: 0px ; text-transform: none ; word-spacing: 0px ; background-color: rgb(42 , 42 , 42) ; display: inline ; float: none&quot;&gt;artist doesn't need&lt;/span&gt;&lt;br style=&quot;color: rgb(240 , 240 , 240) ; font-family: &amp;#34;helvetica&amp;#34; ; font-size: 11px ; font-style: normal ; font-weight: 400 ; letter-spacing: normal ; text-align: center ; text-indent: 0px ; text-transform: none ; word-spacing: 0px&quot;&gt;&lt;span style=&quot;color: rgb(240 , 240 , 240) ; font-family: &amp;#34;helvetica&amp;#34; ; font-size: 11px ; font-style: normal ; font-weight: 400 ; letter-spacing: normal ; text-align: center ; text-indent: 0px ; text-transform: none ; word-spacing: 0px ; background-color: rgb(42 , 42 , 42) ; display: inline ; float: none&quot;&gt;album to exist.&lt;/span&gt;&lt;br style=&quot;color: rgb(240 , 240 , 240) ; font-family: &amp;#34;helvetica&amp;#34; ; font-size: 11px ; font-style: normal ; font-weight: 400 ; letter-spacing: normal ; text-align: center ; text-indent: 0px ; text-transform: none ; word-spacing: 0px&quot;&gt;&lt;span style=&quot;color: rgb(240 , 240 , 240) ; font-family: &amp;#34;helvetica&amp;#34; ; font-size: 11px ; font-style: normal ; font-weight: 400 ; letter-spacing: normal ; text-align: center ; text-indent: 0px ; text-transform: none ; word-spacing: 0px ; background-color: rgb(42 , 42 , 42) ; display: inline ; float: none&quot;&gt;can have 0&amp;gt; many albums&amp;nbsp;&lt;/span&gt;" style="edgeStyle=none;html=1;startArrow=none;strokeWidth=3;endArrow=none;endFill=0;exitX=0;exitY=0;exitDx=0;exitDy=0;" parent="1" source="177" target="181" edge="1">
                    <mxGeometry x="-0.0588" relative="1" as="geometry">
                        <mxPoint as="offset"/>
                        <mxPoint x="450" y="260" as="sourcePoint"/>
                        <mxPoint x="270" y="80" as="targetPoint"/>
                    </mxGeometry>
                </mxCell>
                <mxCell id="187" value="needs an&amp;nbsp;" style="rhombus;whiteSpace=wrap;html=1;" parent="1" vertex="1">
                    <mxGeometry x="470" y="20" width="80" height="80" as="geometry"/>
                </mxCell>
                <mxCell id="188" value="&lt;span style=&quot;color: rgb(240 , 240 , 240) ; font-family: &amp;#34;helvetica&amp;#34; ; font-size: 11px ; font-style: normal ; font-weight: 400 ; letter-spacing: normal ; text-align: center ; text-indent: 0px ; text-transform: none ; word-spacing: 0px ; background-color: rgb(42 , 42 , 42) ; display: inline ; float: none&quot;&gt;song doesn't need&lt;/span&gt;&lt;br style=&quot;color: rgb(240 , 240 , 240) ; font-family: &amp;#34;helvetica&amp;#34; ; font-size: 11px ; font-style: normal ; font-weight: 400 ; letter-spacing: normal ; text-align: center ; text-indent: 0px ; text-transform: none ; word-spacing: 0px&quot;&gt;&lt;span style=&quot;color: rgb(240 , 240 , 240) ; font-family: &amp;#34;helvetica&amp;#34; ; font-size: 11px ; font-style: normal ; font-weight: 400 ; letter-spacing: normal ; text-align: center ; text-indent: 0px ; text-transform: none ; word-spacing: 0px ; background-color: rgb(42 , 42 , 42) ; display: inline ; float: none&quot;&gt;album to exist.&lt;/span&gt;&lt;br style=&quot;color: rgb(240 , 240 , 240) ; font-family: &amp;#34;helvetica&amp;#34; ; font-size: 11px ; font-style: normal ; font-weight: 400 ; letter-spacing: normal ; text-align: center ; text-indent: 0px ; text-transform: none ; word-spacing: 0px&quot;&gt;&lt;span style=&quot;color: rgb(240 , 240 , 240) ; font-family: &amp;#34;helvetica&amp;#34; ; font-size: 11px ; font-style: normal ; font-weight: 400 ; letter-spacing: normal ; text-align: center ; text-indent: 0px ; text-transform: none ; word-spacing: 0px ; background-color: rgb(42 , 42 , 42) ; display: inline ; float: none&quot;&gt;can have 0&amp;gt; many albums&amp;nbsp;&lt;/span&gt;" style="edgeStyle=none;html=1;startArrow=none;strokeWidth=1;endArrow=none;endFill=0;" parent="1" source="15" target="187" edge="1">
                    <mxGeometry x="-0.0588" relative="1" as="geometry">
                        <mxPoint as="offset"/>
                        <mxPoint x="760" y="60" as="sourcePoint"/>
                        <mxPoint x="420" y="-60" as="targetPoint"/>
                    </mxGeometry>
                </mxCell>
                <mxCell id="189" value="album does need&lt;br&gt;song to exist.&lt;br&gt;MUST have 1 &amp;gt; Many songs&amp;nbsp;&amp;nbsp;" style="edgeStyle=none;html=1;startArrow=none;strokeWidth=3;endArrow=none;endFill=0;" parent="1" source="187" target="14" edge="1">
                    <mxGeometry x="-0.0557" relative="1" as="geometry">
                        <mxPoint as="offset"/>
                        <mxPoint x="500" y="60" as="sourcePoint"/>
                        <mxPoint x="260" y="51.42857142857133" as="targetPoint"/>
                        <Array as="points"/>
                    </mxGeometry>
                </mxCell>
                <mxCell id="190" style="edgeStyle=none;html=1;startArrow=none;startFill=0;endArrow=none;endFill=0;strokeWidth=3;entryX=0;entryY=0.75;entryDx=0;entryDy=0;" parent="1" source="191" target="177" edge="1">
                    <mxGeometry relative="1" as="geometry">
                        <mxPoint x="489.99999999999994" y="320.0000000000001" as="targetPoint"/>
                    </mxGeometry>
                </mxCell>
                <mxCell id="191" value="&lt;u&gt;ID&lt;/u&gt;" style="ellipse;whiteSpace=wrap;html=1;" parent="1" vertex="1">
                    <mxGeometry x="310" y="380" width="80" height="40" as="geometry"/>
                </mxCell>
                <mxCell id="192" style="edgeStyle=none;html=1;startArrow=none;startFill=0;endArrow=none;endFill=0;strokeWidth=3;entryX=0;entryY=1;entryDx=0;entryDy=0;" parent="1" source="193" target="177" edge="1">
                    <mxGeometry relative="1" as="geometry">
                        <mxPoint x="500" y="330" as="targetPoint"/>
                    </mxGeometry>
                </mxCell>
                <mxCell id="193" value="artist_name" style="ellipse;whiteSpace=wrap;html=1;" parent="1" vertex="1">
                    <mxGeometry x="360" y="440" width="80" height="40" as="geometry"/>
                </mxCell>
            </root>
        </mxGraphModel>
    </diagram>
</mxfile>